# xmcd
#
# Track frame offsets:
#	150
#	23215
#	28014
#	48618
#	70717
#	82669
#	106020
#	131517
#	154194
#	162621
#	184687
#	199600
#	217322
#	245417
#	267121
#	286835
#
# Disc length: 3959 seconds
#
# Revision: 0
# Processed by: cddbd v1.5.1PL0 Copyright (c) Steve Scherf et al.
# Submitted via: EasyCDDAExtractor 4.5.0.2
#
DISCID=db0f7510
DTITLE=Various Artist - Tribute to Stevie Wonder
DYEAR=1997
DGENRE=Blues
TTITLE0=Lately
TTITLE1=Master Blaster
TTITLE2=Creepin
TTITLE3=As if you read my mind
TTITLE4=Living for the city
TTITLE5=Knocks me off my feet
TTITLE6=In Wonderland
TTITLE7=Do like you
TTITLE8=You and I
TTITLE9=You and my mind
TTITLE10=All in love is fair
TTITLE11=My cherie amour
TTITLE12=You are the sunshine of my life
TTITLE13=Lave's in need of lave today
TTITLE14=In a dream world
TTITLE15=If it's magic
EXTD=
EXTT0=
EXTT1=
EXTT2=
EXTT3=
EXTT4=
EXTT5=
EXTT6=
EXTT7=
EXTT8=
EXTT9=
EXTT10=
EXTT11=
EXTT12=
EXTT13=
EXTT14=
EXTT15=
PLAYORDER=
